<svg viewBox="0 0 1500 1480" xmlns="http://www.w3.org/2000/svg" font-family="Helvetica, Arial, sans-serif">
<rect x="0" y="0" width="1500" height="1480" fill="white"/>
<rect x="40" y="40" width="200" height="116" rx="3" fill="#FFF2CC" stroke="#D6B656" stroke-width="1.5"/><text x="140.0" y="60" text-anchor="middle" font-size="14" font-weight="700" fill="#1a1a1a">Owner</text><line x1="50" y1="66" x2="230" y2="66" stroke="#D6B656" stroke-width="1"/><text x="52" y="87" font-size="11.5" font-weight="700" fill="#8B6F00" text-decoration="underline">Owner_ID</text><text x="52" y="105" font-size="11.5" font-weight="400" fill="#333333">Name</text><text x="52" y="123" font-size="11.5" font-weight="400" fill="#333333">Address</text><text x="52" y="141" font-size="11.5" font-weight="400" fill="#333333">Phone_Number</text>
<rect x="320" y="40" width="220" height="134" rx="3" fill="#FFF2CC" stroke="#D6B656" stroke-width="1.5"/><text x="430.0" y="60" text-anchor="middle" font-size="14" font-weight="700" fill="#1a1a1a">Restaurant</text><line x1="330" y1="66" x2="530" y2="66" stroke="#D6B656" stroke-width="1"/><text x="332" y="87" font-size="11.5" font-weight="700" fill="#8B6F00" text-decoration="underline">Restaurant_ID</text><text x="332" y="105" font-size="11.5" font-weight="400" fill="#333333">Name</text><text x="332" y="123" font-size="11.5" font-weight="400" fill="#333333">Address</text><text x="332" y="141" font-size="11.5" font-weight="400" fill="#333333">Email</text><text x="332" y="159" font-size="11.5" font-weight="400" fill="#333333">Phone_Number</text>
<rect x="640" y="40" width="200" height="116" rx="3" fill="#FFF2CC" stroke="#D6B656" stroke-width="1.5"/><text x="740.0" y="60" text-anchor="middle" font-size="14" font-weight="700" fill="#1a1a1a">Manager</text><line x1="650" y1="66" x2="830" y2="66" stroke="#D6B656" stroke-width="1"/><text x="652" y="87" font-size="11.5" font-weight="700" fill="#8B6F00" text-decoration="underline">Manager_ID</text><text x="652" y="105" font-size="11.5" font-weight="400" fill="#333333">Name</text><text x="652" y="123" font-size="11.5" font-weight="400" fill="#333333">Email</text><text x="652" y="141" font-size="11.5" font-weight="400" fill="#333333">Phone_Number</text>
<rect x="940" y="40" width="220" height="116" rx="3" fill="#FFF2CC" stroke="#D6B656" stroke-width="1.5"/><text x="1050.0" y="60" text-anchor="middle" font-size="14" font-weight="700" fill="#1a1a1a">Inventory</text><line x1="950" y1="66" x2="1150" y2="66" stroke="#D6B656" stroke-width="1"/><text x="952" y="87" font-size="11.5" font-weight="700" fill="#8B6F00" text-decoration="underline">Item_ID</text><text x="952" y="105" font-size="11.5" font-weight="400" fill="#333333">Item_Name</text><text x="952" y="123" font-size="11.5" font-weight="400" fill="#333333">Quantity</text><text x="952" y="141" font-size="11.5" font-weight="400" fill="#333333">Unit_Price</text>
<rect x="640" y="280" width="200" height="116" rx="3" fill="#FFF2CC" stroke="#D6B656" stroke-width="1.5"/><text x="740.0" y="300" text-anchor="middle" font-size="14" font-weight="700" fill="#1a1a1a">Employee</text><line x1="650" y1="306" x2="830" y2="306" stroke="#D6B656" stroke-width="1"/><text x="652" y="327" font-size="11.5" font-weight="700" fill="#8B6F00" text-decoration="underline">Employee_ID</text><text x="652" y="345" font-size="11.5" font-weight="400" fill="#333333">Name</text><text x="652" y="363" font-size="11.5" font-weight="400" fill="#333333">Role</text><text x="652" y="381" font-size="11.5" font-weight="400" fill="#333333">Phone_Number</text>
<rect x="340" y="520" width="210" height="116" rx="3" fill="#FFF2CC" stroke="#D6B656" stroke-width="1.5"/><text x="445.0" y="540" text-anchor="middle" font-size="14" font-weight="700" fill="#1a1a1a">Waiter</text><line x1="350" y1="546" x2="540" y2="546" stroke="#D6B656" stroke-width="1"/><text x="352" y="567" font-size="11.5" font-weight="700" fill="#8B6F00" text-decoration="underline">Waiter_ID</text><text x="352" y="585" font-size="11.5" font-weight="400" fill="#333333">Name</text><text x="352" y="603" font-size="11.5" font-weight="400" fill="#333333">Email</text><text x="352" y="621" font-size="11.5" font-weight="400" fill="#333333">Phone_Number</text>
<rect x="640" y="520" width="200" height="116" rx="3" fill="#FFF2CC" stroke="#D6B656" stroke-width="1.5"/><text x="740.0" y="540" text-anchor="middle" font-size="14" font-weight="700" fill="#1a1a1a">Chef</text><line x1="650" y1="546" x2="830" y2="546" stroke="#D6B656" stroke-width="1"/><text x="652" y="567" font-size="11.5" font-weight="700" fill="#8B6F00" text-decoration="underline">Chef_ID</text><text x="652" y="585" font-size="11.5" font-weight="400" fill="#333333">Name</text><text x="652" y="603" font-size="11.5" font-weight="400" fill="#333333">Email</text><text x="652" y="621" font-size="11.5" font-weight="400" fill="#333333">Phone_Number</text>
<rect x="940" y="520" width="220" height="116" rx="3" fill="#FFF2CC" stroke="#D6B656" stroke-width="1.5"/><text x="1050.0" y="540" text-anchor="middle" font-size="14" font-weight="700" fill="#1a1a1a">Accountant</text><line x1="950" y1="546" x2="1150" y2="546" stroke="#D6B656" stroke-width="1"/><text x="952" y="567" font-size="11.5" font-weight="700" fill="#8B6F00" text-decoration="underline">Accountant_ID</text><text x="952" y="585" font-size="11.5" font-weight="400" fill="#333333">Name</text><text x="952" y="603" font-size="11.5" font-weight="400" fill="#333333">Email</text><text x="952" y="621" font-size="11.5" font-weight="400" fill="#333333">Phone_Number</text>
<rect x="60" y="760" width="210" height="98" rx="3" fill="#FFF2CC" stroke="#D6B656" stroke-width="1.5"/><text x="165.0" y="780" text-anchor="middle" font-size="14" font-weight="700" fill="#1a1a1a">Dining Tables</text><line x1="70" y1="786" x2="260" y2="786" stroke="#D6B656" stroke-width="1"/><text x="72" y="807" font-size="11.5" font-weight="700" fill="#8B6F00" text-decoration="underline">Table_No</text><text x="72" y="825" font-size="11.5" font-weight="400" fill="#333333">Shape</text><text x="72" y="843" font-size="11.5" font-weight="400" fill="#333333">Seats</text>
<rect x="340" y="760" width="210" height="116" rx="3" fill="#FFF2CC" stroke="#D6B656" stroke-width="1.5"/><text x="445.0" y="780" text-anchor="middle" font-size="14" font-weight="700" fill="#1a1a1a">Menu</text><line x1="350" y1="786" x2="540" y2="786" stroke="#D6B656" stroke-width="1"/><text x="352" y="807" font-size="11.5" font-weight="700" fill="#8B6F00" text-decoration="underline">Menu_ID</text><text x="352" y="825" font-size="11.5" font-weight="400" fill="#333333">Item_Name</text><text x="352" y="843" font-size="11.5" font-weight="400" fill="#333333">Price</text><text x="352" y="861" font-size="11.5" font-weight="400" fill="#333333">Deals</text>
<rect x="640" y="760" width="210" height="98" rx="3" fill="#FFF2CC" stroke="#D6B656" stroke-width="1.5"/><text x="745.0" y="780" text-anchor="middle" font-size="14" font-weight="700" fill="#1a1a1a">Customer</text><line x1="650" y1="786" x2="840" y2="786" stroke="#D6B656" stroke-width="1"/><text x="652" y="807" font-size="11.5" font-weight="700" fill="#8B6F00" text-decoration="underline">Customer_ID</text><text x="652" y="825" font-size="11.5" font-weight="400" fill="#333333">Name</text><text x="652" y="843" font-size="11.5" font-weight="400" fill="#333333">Phone_Number</text>
<rect x="640" y="1000" width="210" height="98" rx="3" fill="#FFF2CC" stroke="#D6B656" stroke-width="1.5"/><text x="745.0" y="1020" text-anchor="middle" font-size="14" font-weight="700" fill="#1a1a1a">Orders</text><line x1="650" y1="1026" x2="840" y2="1026" stroke="#D6B656" stroke-width="1"/><text x="652" y="1047" font-size="11.5" font-weight="700" fill="#8B6F00" text-decoration="underline">Order_ID</text><text x="652" y="1065" font-size="11.5" font-weight="400" fill="#333333">Ordered_Item</text><text x="652" y="1083" font-size="11.5" font-weight="400" fill="#333333">Price_Per_Item</text>
<rect x="640" y="1230" width="220" height="116" rx="3" fill="#FFF2CC" stroke="#D6B656" stroke-width="1.5"/><text x="750.0" y="1250" text-anchor="middle" font-size="14" font-weight="700" fill="#1a1a1a">Bill</text><line x1="650" y1="1256" x2="850" y2="1256" stroke="#D6B656" stroke-width="1"/><text x="652" y="1277" font-size="11.5" font-weight="700" fill="#8B6F00" text-decoration="underline">Bill_ID</text><text x="652" y="1295" font-size="11.5" font-weight="400" fill="#333333">Items_Amount</text><text x="652" y="1313" font-size="11.5" font-weight="400" fill="#333333">Deal_Discount</text><text x="652" y="1331" font-size="11.5" font-weight="400" fill="#333333">Total_Amount</text>
<line x1="240" y1="98.0" x2="270" y2="65" stroke="#666666" stroke-width="1.3"/>
<line x1="270" y1="65" x2="320" y2="107.0" stroke="#666666" stroke-width="1.3"/>
<polygon points="270,48.0 305.0,65 270,82.0 235.0,65" fill="#FFC107" stroke="#B8860B" stroke-width="1.3"/><text x="270" y="69" text-anchor="middle" font-size="10.5" font-weight="700" fill="#3a2a00">Owns</text>
<text x="246" y="94.0" font-size="10" font-weight="600" fill="#444">1</text>
<text x="306" y="103.0" font-size="10" font-weight="600" fill="#444">1</text>
<line x1="540" y1="107.0" x2="590" y2="65" stroke="#666666" stroke-width="1.3"/>
<line x1="590" y1="65" x2="640" y2="98.0" stroke="#666666" stroke-width="1.3"/>
<polygon points="590,48.0 625.0,65 590,82.0 555.0,65" fill="#FFC107" stroke="#B8860B" stroke-width="1.3"/><text x="590" y="69" text-anchor="middle" font-size="10.5" font-weight="700" fill="#3a2a00">Has</text>
<text x="546" y="103.0" font-size="10" font-weight="600" fill="#444">1</text>
<text x="626" y="94.0" font-size="10" font-weight="600" fill="#444">1</text>
<line x1="840" y1="98.0" x2="890" y2="65" stroke="#666666" stroke-width="1.3"/>
<line x1="890" y1="65" x2="940" y2="98.0" stroke="#666666" stroke-width="1.3"/>
<polygon points="890,48.0 925.0,65 890,82.0 855.0,65" fill="#FFC107" stroke="#B8860B" stroke-width="1.3"/><text x="890" y="69" text-anchor="middle" font-size="10.5" font-weight="700" fill="#3a2a00">Manages</text>
<text x="846" y="94.0" font-size="10" font-weight="600" fill="#444">1</text>
<text x="926" y="94.0" font-size="10" font-weight="600" fill="#444">M</text>
<line x1="740.0" y1="156" x2="740" y2="215" stroke="#666666" stroke-width="1.3"/>
<line x1="740" y1="215" x2="740.0" y2="280" stroke="#666666" stroke-width="1.3"/>
<polygon points="740,198.0 775.0,215 740,232.0 705.0,215" fill="#FFC107" stroke="#B8860B" stroke-width="1.3"/><text x="740" y="219" text-anchor="middle" font-size="10.5" font-weight="700" fill="#3a2a00">Manages</text>
<text x="746.0" y="152" font-size="10" font-weight="600" fill="#444">1</text>
<text x="726.0" y="276" font-size="10" font-weight="600" fill="#444">M</text>
<line x1="390.0" y1="636" x2="300" y2="690" stroke="#666666" stroke-width="1.3"/>
<line x1="300" y1="690" x2="165.0" y2="760" stroke="#666666" stroke-width="1.3"/>
<polygon points="300,673.0 335.0,690 300,707.0 265.0,690" fill="#FFC107" stroke="#B8860B" stroke-width="1.3"/><text x="300" y="694" text-anchor="middle" font-size="10.5" font-weight="700" fill="#3a2a00">Has</text>
<text x="396.0" y="632" font-size="10" font-weight="600" fill="#444">1</text>
<text x="151.0" y="756" font-size="10" font-weight="600" fill="#444">M</text>
<line x1="475.0" y1="636" x2="470" y2="690" stroke="#666666" stroke-width="1.3"/>
<line x1="470" y1="690" x2="445.0" y2="760" stroke="#666666" stroke-width="1.3"/>
<polygon points="470,673.0 505.0,690 470,707.0 435.0,690" fill="#FFC107" stroke="#B8860B" stroke-width="1.3"/><text x="470" y="694" text-anchor="middle" font-size="10.5" font-weight="700" fill="#3a2a00">Has</text>
<text x="481.0" y="632" font-size="10" font-weight="600" fill="#444">1</text>
<text x="431.0" y="756" font-size="10" font-weight="600" fill="#444">M</text>
<line x1="550" y1="578.0" x2="660" y2="690" stroke="#666666" stroke-width="1.3"/>
<line x1="660" y1="690" x2="640" y2="769.0" stroke="#666666" stroke-width="1.3"/>
<polygon points="660,673.0 695.0,690 660,707.0 625.0,690" fill="#FFC107" stroke="#B8860B" stroke-width="1.3"/><text x="660" y="694" text-anchor="middle" font-size="10.5" font-weight="700" fill="#3a2a00">Serves</text>
<text x="556" y="574.0" font-size="10" font-weight="600" fill="#444">1</text>
<text x="626" y="765.0" font-size="10" font-weight="600" fill="#444">M</text>
<line x1="800.0" y1="858" x2="790" y2="940" stroke="#666666" stroke-width="1.3"/>
<line x1="790" y1="940" x2="745.0" y2="1000" stroke="#666666" stroke-width="1.3"/>
<polygon points="790,923.0 825.0,940 790,957.0 755.0,940" fill="#FFC107" stroke="#B8860B" stroke-width="1.3"/><text x="790" y="944" text-anchor="middle" font-size="10.5" font-weight="700" fill="#3a2a00">Gives</text>
<text x="806.0" y="854" font-size="10" font-weight="600" fill="#444">1</text>
<text x="731.0" y="996" font-size="10" font-weight="600" fill="#444">M</text>
<line x1="445.0" y1="876" x2="420" y2="960" stroke="#666666" stroke-width="1.3"/>
<line x1="420" y1="960" x2="640" y2="1079.0" stroke="#666666" stroke-width="1.3"/>
<polygon points="420,943.0 455.0,960 420,977.0 385.0,960" fill="#FFC107" stroke="#B8860B" stroke-width="1.3"/><text x="420" y="964" text-anchor="middle" font-size="10.5" font-weight="700" fill="#3a2a00">Taken By</text>
<text x="451.0" y="872" font-size="10" font-weight="600" fill="#444">1</text>
<text x="626" y="1075.0" font-size="10" font-weight="600" fill="#444">M</text>
<line x1="165.0" y1="858" x2="380" y2="920" stroke="#666666" stroke-width="1.3"/>
<line x1="380" y1="920" x2="690.0" y2="858" stroke="#666666" stroke-width="1.3"/>
<polygon points="380,903.0 415.0,920 380,937.0 345.0,920" fill="#FFC107" stroke="#B8860B" stroke-width="1.3"/><text x="380" y="924" text-anchor="middle" font-size="10.5" font-weight="700" fill="#3a2a00">Seated At</text>
<text x="171.0" y="854" font-size="10" font-weight="600" fill="#444">1</text>
<text x="676.0" y="854" font-size="10" font-weight="600" fill="#444">M</text>
<line x1="745.0" y1="1098" x2="740" y2="1165" stroke="#666666" stroke-width="1.3"/>
<line x1="740" y1="1165" x2="750.0" y2="1230" stroke="#666666" stroke-width="1.3"/>
<polygon points="740,1148.0 775.0,1165 740,1182.0 705.0,1165" fill="#FFC107" stroke="#B8860B" stroke-width="1.3"/><text x="740" y="1169" text-anchor="middle" font-size="10.5" font-weight="700" fill="#3a2a00">Generates</text>
<text x="751.0" y="1094" font-size="10" font-weight="600" fill="#444">1</text>
<text x="736.0" y="1226" font-size="10" font-weight="600" fill="#444">1</text>
<line x1="850" y1="809.0" x2="910" y2="1000" stroke="#666666" stroke-width="1.3"/>
<line x1="910" y1="1000" x2="860" y2="1318.0" stroke="#666666" stroke-width="1.3"/>
<polygon points="910,983.0 945.0,1000 910,1017.0 875.0,1000" fill="#FFC107" stroke="#B8860B" stroke-width="1.3"/><text x="910" y="1004" text-anchor="middle" font-size="10.5" font-weight="700" fill="#3a2a00">Pays</text>
<text x="856" y="805.0" font-size="10" font-weight="600" fill="#444">1</text>
<text x="846" y="1314.0" font-size="10" font-weight="600" fill="#444">M</text>
<line x1="1050.0" y1="636" x2="1080" y2="900" stroke="#666666" stroke-width="1.3"/>
<line x1="1080" y1="900" x2="860" y2="1258.0" stroke="#666666" stroke-width="1.3"/>
<polygon points="1080,883.0 1115.0,900 1080,917.0 1045.0,900" fill="#FFC107" stroke="#B8860B" stroke-width="1.3"/><text x="1080" y="904" text-anchor="middle" font-size="10.5" font-weight="700" fill="#3a2a00">Clears</text>
<text x="1056.0" y="632" font-size="10" font-weight="600" fill="#444">1</text>
<text x="846" y="1254.0" font-size="10" font-weight="600" fill="#444">M</text>
<line x1="740.0" y1="396" x2="740" y2="460" stroke="#666666" stroke-width="1.3"/>
<polygon points="740,446 718,474 762,474" fill="white" stroke="#666666" stroke-width="1.3"/>
<text x="740" y="469" text-anchor="middle" font-size="9" fill="#333333">ISA</text>
<line x1="740" y1="474" x2="445.0" y2="520" stroke="#666666" stroke-width="1.3"/>
<line x1="740" y1="474" x2="740.0" y2="520" stroke="#666666" stroke-width="1.3"/>
<line x1="740" y1="474" x2="1050.0" y2="520" stroke="#666666" stroke-width="1.3"/>
<rect x="1180" y="60" width="270" height="160" fill="#FAFAFA" stroke="#CCCCCC" stroke-width="1"/>
<text x="1192" y="82" font-size="13" font-weight="700" fill="#1a1a1a">Legend</text>
<rect x="1192" y="94" width="26" height="16" fill="#FFF2CC" stroke="#D6B656"/>
<text x="1226" y="106" font-size="11" fill="#333333">Entity (table)</text>
<polygon points="1205,120.0 1218.0,128 1205,136.0 1192.0,128" fill="#FFC107" stroke="#B8860B" stroke-width="1.3"/>
<text x="1226" y="132" font-size="11" fill="#333333">Relationship</text>
<line x1="1192" y1="156" x2="1218" y2="156" stroke="#666666" stroke-width="1.3"/>
<text x="1226" y="160" font-size="11" fill="#333333">Connector</text>
<text x="1192" y="182" font-size="10.5" fill="#333333">PK = underlined, bold</text>
<text x="1192" y="200" font-size="10.5" fill="#333333">1 / M = cardinality</text>
</svg>